<svg width="524" height="607" viewBox="0 0 524 607" fill="none" xmlns="http://www.w3.org/2000/svg">
<path d="M23.7789 515V174.8H12.3789L20.7789 95H77.1789L136.579 94.4L165.379 321.2L194.779 95H307.579V515H225.979V264.2L194.179 455H137.179L105.379 264.2V515H23.7789ZM343.115 515V174.8H331.715L340.115 95H511.715L506.915 174.8H424.715V264.8H498.515L493.715 344.6H424.715V435.2H511.715L506.915 515H343.115Z" fill="#3E00FF"/>
<rect x="99" y="244" width="325" height="120" fill="#3E00FF"/>
<path d="M165.232 339L173.532 282.3H171.432L172.832 269H196.132L206.432 339H192.932L191.432 329H180.232L178.732 339H165.232ZM182.132 315.7H189.532L185.832 290.7L182.132 315.7ZM211.847 339V282.3H209.947L211.347 269H230.447C235.581 269 239.247 270.133 241.447 272.4C243.714 274.6 244.847 278.233 244.847 283.3V296.4C244.847 298.4 244.681 300.167 244.347 301.7C246.014 303.9 246.847 307.233 246.847 311.7V324.7C246.847 329.767 245.714 333.433 243.447 335.7C241.247 337.9 237.581 339 232.447 339H211.847ZM230.747 297.4C231.081 297.4 231.247 297.233 231.247 296.9V282.8C231.247 282.467 231.081 282.3 230.747 282.3H225.447V297.4H230.747ZM233.247 311.2C233.247 310.867 233.081 310.7 232.747 310.7H225.447V325.7H232.747C233.081 325.7 233.247 325.533 233.247 325.2V311.2ZM283.589 325.1C283.589 330.167 282.455 333.833 280.189 336.1C277.989 338.3 274.322 339.4 269.189 339.4H264.789C259.655 339.4 255.955 338.3 253.689 336.1C251.489 333.833 250.389 330.167 250.389 325.1V282.9C250.389 277.767 251.489 274.1 253.689 271.9C255.955 269.7 259.655 268.6 264.789 268.6H269.189C274.322 268.6 277.989 269.7 280.189 271.9C282.455 274.1 283.589 277.767 283.589 282.9V325.1ZM264.489 281.9C264.155 281.9 263.989 282.067 263.989 282.4V325.6C263.989 325.933 264.155 326.1 264.489 326.1H269.489C269.822 326.1 269.989 325.933 269.989 325.6V282.4C269.989 282.067 269.822 281.9 269.489 281.9H264.489ZM323.684 325.1C323.684 330.167 322.551 333.833 320.284 336.1C318.084 338.3 314.417 339.4 309.284 339.4H303.884C298.751 339.4 295.051 338.3 292.784 336.1C290.584 333.833 289.484 330.167 289.484 325.1V282.3H287.584L288.984 269H303.084V325.6C303.084 325.933 303.251 326.1 303.584 326.1H309.584C309.917 326.1 310.084 325.933 310.084 325.6V269H323.684V325.1ZM336.935 339V282.3H327.635V269L359.735 269V282.3L350.535 282.3V339H336.935Z" fill="white"/>
</svg>
