<svg width="64" height="64" viewBox="0 0 64 64" fill="none" xmlns="http://www.w3.org/2000/svg">
<rect x="1.55664" y="1.63916" width="61.3609" height="61.3609" rx="6" stroke="#FAE400" stroke-width="2"/>
<path d="M20.083 20.5639C20.083 17.1526 22.8484 14.3872 26.2597 14.3872H32.4364V26.7406H26.2597C22.8484 26.7406 20.083 23.9752 20.083 20.5639Z" fill="#FAE400"/>
<path d="M20.083 32.9174C20.083 29.5061 22.8484 26.7407 26.2597 26.7407H32.4364V39.0941H26.2597C22.8484 39.0941 20.083 36.3287 20.083 32.9174Z" fill="#FAE400"/>
<path d="M20.083 45.2704C20.083 41.8591 22.8484 39.0938 26.2597 39.0938H32.4364V45.2704C32.4364 48.6817 29.671 51.4471 26.2597 51.4471C22.8484 51.4471 20.083 48.6817 20.083 45.2704Z" fill="#FAE400"/>
<path d="M32.436 14.3872H38.6127C42.024 14.3872 44.7894 17.1526 44.7894 20.5639C44.7894 23.9752 42.024 26.7406 38.6127 26.7406H32.436V14.3872Z" fill="#FAE400"/>
<path d="M32.436 32.9174C32.436 29.5061 35.2014 26.7407 38.6127 26.7407C42.024 26.7407 44.7894 29.5061 44.7894 32.9174C44.7894 36.3287 42.024 39.0941 38.6127 39.0941C35.2014 39.0941 32.436 36.3287 32.436 32.9174Z" fill="#FAE400"/>
</svg>
