<svg width="931" height="420" viewBox="0 0 931 420" fill="none" xmlns="http://www.w3.org/2000/svg">
<path d="M132.477 0H189.477V420H132.477L66.4766 163.2V420H9.47656V55.8H0.476562L6.47656 0H69.4766L136.077 267L132.477 0Z" fill="#3E00FF"/>
<path d="M264.312 420H207.312L239.712 55.8H228.913L234.913 0H344.712L381.913 420H324.913L318.312 348H270.913L264.312 420ZM275.712 292.2H313.513L294.913 83.4L275.712 292.2Z" fill="#3E00FF"/>
<path d="M490.817 234.6V420H433.817V234.6L363.617 0H420.617L462.617 139.8L504.017 0H561.017L490.817 234.6Z" fill="#3E00FF"/>
<path d="M612.359 420H555.359L587.759 55.8H576.959L582.959 0H692.759L729.959 420H672.959L666.359 348H618.959L612.359 420ZM623.759 292.2H661.559L642.959 83.4L623.759 292.2Z" fill="#3E00FF"/>
<path d="M873.688 0H930.688V420H873.688L807.688 163.2V420H750.688V55.8H741.688L747.688 0H810.688L877.288 267L873.688 0Z" fill="#3E00FF"/>
<rect width="150.279" height="165" rx="41" transform="matrix(0.983255 -0.182236 0 1 393.237 130.728)" fill="#3E00FF"/>
<path d="M451.427 151.131L465.251 148.569L456.229 253.841L432.072 258.318L423.05 156.391L436.874 153.828L444.15 234.324L451.427 151.131Z" fill="#00011C"/>
<path d="M468.844 161.667L470.299 147.634L493.291 143.372C497.366 142.617 500.664 143.288 503.187 145.386C505.709 147.385 506.97 150.457 506.97 154.601V200.925C506.97 203.096 506.534 205.15 505.661 207.088C504.788 208.927 503.623 210.573 502.168 212.027L511.482 243.601L497.511 246.19L489.217 217.979L484.851 218.788V248.536L471.026 251.099V161.263L468.844 161.667ZM492.418 157.298L484.851 158.7V205.024L492.418 203.622C492.903 203.532 493.146 203.24 493.146 202.747V157.903C493.146 157.41 492.903 157.208 492.418 157.298Z" fill="#00011C"/>
</svg>
