<svg width="76" height="56" viewBox="0 0 76 56" fill="none" xmlns="http://www.w3.org/2000/svg">
<path d="M38.0006 42.5789C38.0006 42.5789 30.8016 30.1385 29.427 27.2839C28.0523 24.4293 25.9225 23.3987 24.0668 25.6851C22.2111 27.9714 18.982 33.4725 17.8816 36.2528C16.7812 39.0332 15.546 42.5193 18.2941 42.5193C21.0421 42.5193 24.6164 40.8425 25.3043 40.4945C25.9922 40.1465 29.445 38.1656 21.9201 45.9348C14.3951 53.7039 7.95135 56 3.82748 56C-0.296386 56 -1.17191 51.3592 1.61101 42.5193C4.39393 33.6793 13.0024 17.6227 17.1263 12.1958C21.2502 6.76896 24.3422 4.89512 27.641 4.89512C30.9399 4.89512 33.8599 5.72983 38.0006 13.4211C38.0006 13.4211 45.1996 25.8615 46.5742 28.7124C47.9489 31.5633 50.0788 32.6013 51.9332 30.3149C53.7877 28.0286 57.018 22.5275 58.1184 19.7472C59.2188 16.9668 60.454 13.4807 57.7059 13.4807C54.9579 13.4807 51.3836 15.1575 50.6957 15.5055C50.0078 15.8535 46.555 17.8344 54.0799 10.0652C61.6049 2.29607 68.0487 0 72.1725 0C76.2964 0 77.1719 4.64081 74.389 13.4807C71.6061 22.3207 62.9976 38.381 58.8749 43.8042C54.7522 49.2274 51.659 51.1049 48.3602 51.1049C45.0613 51.1049 42.1413 50.3018 38.0006 42.5789Z" fill="#FAE400"/>
</svg>
