<svg width="617" height="304" viewBox="0 0 617 304" fill="none" xmlns="http://www.w3.org/2000/svg">
<path d="M45.3 192L45.3 219C45.3 220 45.8 220.5 46.8 220.5H55.5C56.5 220.5 57 220 57 219L57.3 179.1L23.4 164.4C15.8 161 10.7 157.5 8.1 153.9C5.7 150.3 4.5 144.8 4.5 137.4L4.5 88.5C4.5 73.1 7.8 62.1 14.4 55.5C21 48.9 31.7 45.6 46.5 45.6H59.1C73.1 46.2 83.1 49.9 89.1 56.7C95.1 63.3 98.1 73.9 98.1 88.5V126L57.3 121.5L57.3 87C57.3 86 56.8 85.5 55.8 85.5H46.8C45.8 85.5 45.3 86 45.3 87L45.3 131.1L79.2 145.8C86.8 149 91.8 152.5 94.2 156.3C96.8 159.9 98.1 165.4 98.1 172.8V217.5C98.1 232.1 95.1 242.8 89.1 249.6C83.1 256.2 73.1 259.8 59.1 260.4H47.1C31.9 260.4 21 257.1 14.4 250.5C7.8 243.7 4.5 232.7 4.5 217.5L4.5 192H45.3ZM114.239 258L114.239 87.9H108.539L112.739 48L155.039 48L155.039 102.9L180.839 48L219.839 48L178.739 135.6L225.239 258H186.239L155.039 175.8V258H114.239ZM235.528 258L235.528 87.9H229.828L234.028 48L276.328 48L276.328 258H235.528ZM294.122 258.3L294.122 88.2H288.422L292.622 48.3L334.922 48.3L334.922 218.1H392.222L389.822 258H334.922V258.3H294.122ZM409.845 258.3L409.845 88.2H404.145L408.345 48.3L450.645 48.3L450.645 218.1H507.945L505.545 258H450.645V258.3H409.845ZM559.167 192V219C559.167 220 559.667 220.5 560.667 220.5H569.367C570.367 220.5 570.867 220 570.867 219L571.167 179.1L537.267 164.4C529.667 161 524.567 157.5 521.967 153.9C519.567 150.3 518.367 144.8 518.367 137.4V88.5C518.367 73.1 521.667 62.1 528.267 55.5C534.867 48.9 545.567 45.6 560.367 45.6H572.967C586.967 46.2 596.967 49.9 602.967 56.7C608.967 63.3 611.967 73.9 611.967 88.5V126L571.167 121.5V87C571.167 86 570.667 85.5 569.667 85.5H560.667C559.667 85.5 559.167 86 559.167 87V131.1L593.067 145.8C600.667 149 605.667 152.5 608.067 156.3C610.667 159.9 611.967 165.4 611.967 172.8V217.5C611.967 232.1 608.967 242.8 602.967 249.6C596.967 256.2 586.967 259.8 572.967 260.4H560.967C545.767 260.4 534.867 257.1 528.267 250.5C521.667 243.7 518.367 232.7 518.367 217.5V192H559.167Z" fill="#3E00FF"/>
<rect x="174" y="112" width="270" height="81" fill="#3E00FF"/>
<path d="M182.246 177V137.31H175.736V128H198.206V137.31H191.766V177H182.246ZM202.359 177V137.31H201.029L202.009 128H222.029L221.469 137.31H211.879V147.81H220.489L219.929 157.12H211.879V167.69H222.029L221.469 177H202.359ZM248.058 156.7V167.55C248.058 171.097 247.265 173.663 245.678 175.25C244.138 176.79 241.571 177.56 237.978 177.56H234.898C231.305 177.56 228.715 176.79 227.128 175.25C225.588 173.663 224.818 171.097 224.818 167.55V137.45C224.818 133.857 225.588 131.29 227.128 129.75C228.715 128.21 231.305 127.44 234.898 127.44H237.978C241.571 127.44 244.138 128.21 245.678 129.75C247.265 131.29 248.058 133.857 248.058 137.45V149L238.538 147.95V137.1C238.538 136.867 238.421 136.75 238.188 136.75H234.688C234.455 136.75 234.338 136.867 234.338 137.1V167.9C234.338 168.133 234.455 168.25 234.688 168.25H238.188C238.421 168.25 238.538 168.133 238.538 167.9V156.7H248.058ZM252.193 177V137.31H250.863L251.843 128H261.713V149.28H265.563V128H275.083V177H265.563V158.59H261.713V177H252.193ZM279.195 177V137.31H277.865L278.845 128H288.715L296.695 154.6V128L306.215 128V177H296.695L288.715 150.4V177L279.195 177ZM310.367 177V137.31H309.037L310.017 128H319.887V177H310.367ZM346.29 156.7V167.55C346.29 171.097 345.497 173.663 343.91 175.25C342.37 176.79 339.804 177.56 336.21 177.56H333.13C329.537 177.56 326.947 176.79 325.36 175.25C323.82 173.663 323.05 171.097 323.05 167.55V137.45C323.05 133.857 323.82 131.29 325.36 129.75C326.947 128.21 329.537 127.44 333.13 127.44H336.21C339.804 127.44 342.37 128.21 343.91 129.75C345.497 131.29 346.29 133.857 346.29 137.45V149L336.77 147.95V137.1C336.77 136.867 336.654 136.75 336.42 136.75H332.92C332.687 136.75 332.57 136.867 332.57 137.1V167.9C332.57 168.133 332.687 168.25 332.92 168.25H336.42C336.654 168.25 336.77 168.133 336.77 167.9V156.7H346.29ZM348.412 177L354.222 137.31H352.752L353.732 128H370.042L377.252 177H367.802L366.752 170H358.912L357.862 177H348.412ZM360.242 160.69H365.422L362.832 143.19L360.242 160.69ZM381.392 177.07V137.38H380.062L381.042 128.07H390.912V167.69H404.282L403.722 177H390.912V177.07H381.392Z" fill="white"/>
</svg>
