<svg width="510" height="304" viewBox="0 0 510 304" fill="none" xmlns="http://www.w3.org/2000/svg">
<path d="M7.5 258L7.5 48L48.3 48L48.3 178.8L65.1 78H93.6L109.5 173.4L109.5 48L150.3 48L150.3 258H93.9L79.2 144.9L64.8 258H7.5ZM264.975 216.3C264.975 231.5 261.575 242.5 254.775 249.3C248.175 255.9 237.175 259.2 221.775 259.2H208.575C193.175 259.2 182.075 255.9 175.275 249.3C168.675 242.5 165.375 231.5 165.375 216.3V89.7C165.375 74.3 168.675 63.3 175.275 56.7C182.075 50.1 193.175 46.8 208.575 46.8H221.775C237.175 46.8 248.175 50.1 254.775 56.7C261.575 63.3 264.975 74.3 264.975 89.7L264.975 216.3ZM207.675 86.7C206.675 86.7 206.175 87.2 206.175 88.2L206.175 217.8C206.175 218.8 206.675 219.3 207.675 219.3H222.675C223.675 219.3 224.175 218.8 224.175 217.8L224.175 88.2C224.175 87.2 223.675 86.7 222.675 86.7L207.675 86.7ZM281.196 258L281.196 87.9H275.496L279.696 48L334.596 48C349.996 48 360.996 51.4 367.596 58.2C374.396 64.8 377.796 75.7 377.796 90.9V159.3C377.796 174.7 374.496 185.7 367.896 192.3L386.496 258H345.696L330.096 202.2H321.996V258H281.196ZM335.496 87.9H321.996V162.3H335.496C336.496 162.3 336.996 161.8 336.996 160.8V89.4C336.996 88.4 336.496 87.9 335.496 87.9ZM396.954 258L396.954 87.9H391.254L395.454 48L437.754 48V102.9L463.554 48L502.554 48L461.454 135.6L507.954 258H468.954L437.754 175.8L437.754 258H396.954Z" fill="#3E00FF"/>
<rect x="113" y="112" width="236" height="81" fill="#3E00FF"/>
<path d="M125.882 176L125.882 127H135.402V157.52L139.322 134H145.972L149.682 156.26V127H159.202V176H146.042L142.612 149.61L139.252 176H125.882ZM163.366 176V136.31H162.036L163.016 127H172.886V148.28H176.736V127L186.256 127V176H176.736V157.59H172.886V176H163.366ZM189.038 176L194.848 136.31H193.378L194.358 127H210.668L217.878 176H208.428L207.378 169H199.538L198.488 176H189.038ZM200.868 159.69H206.048L203.458 142.19L200.868 159.69ZM224.395 176V136.31L217.885 136.31V127H240.355V136.31H233.915V176H224.395ZM257.086 176V136.31H255.756L256.736 127H266.606V176H257.086ZM306.576 165.99C306.576 169.537 305.783 172.103 304.196 173.69C302.656 175.23 300.09 176 296.496 176H283.336V136.31H282.006L282.986 127H296.496C300.09 127 302.656 127.77 304.196 129.31C305.783 130.85 306.576 133.417 306.576 137.01V165.99ZM296.706 166.69C296.94 166.69 297.056 166.573 297.056 166.34V136.66C297.056 136.427 296.94 136.31 296.706 136.31H292.856V166.69H296.706ZM332.932 166.27C332.932 169.817 332.139 172.383 330.552 173.97C329.012 175.51 326.445 176.28 322.852 176.28H319.772C316.179 176.28 313.589 175.51 312.002 173.97C310.462 172.383 309.692 169.817 309.692 166.27V136.73C309.692 133.137 310.462 130.57 312.002 129.03C313.589 127.49 316.179 126.72 319.772 126.72H322.852C326.445 126.72 329.012 127.49 330.552 129.03C332.139 130.57 332.932 133.137 332.932 136.73V166.27ZM319.562 136.03C319.329 136.03 319.212 136.147 319.212 136.38V166.62C319.212 166.853 319.329 166.97 319.562 166.97H323.062C323.295 166.97 323.412 166.853 323.412 166.62V136.38C323.412 136.147 323.295 136.03 323.062 136.03H319.562ZM345.057 144H335.937V128H349.777C351.964 128 353.75 128.693 355.137 130.08C356.577 131.467 357.297 133.253 357.297 135.44V147.92C357.297 149.893 356.604 151.6 355.217 153.04C353.884 154.427 352.364 155.147 350.657 155.2C350.39 155.2 350.257 155.36 350.257 155.68V162.32H341.217V155.36C341.217 153.28 341.67 151.52 342.577 150.08C343.537 148.64 345.27 147.92 347.777 147.92C348.044 147.92 348.177 147.787 348.177 147.52V139.04C348.177 138.773 348.044 138.64 347.777 138.64H345.057V144ZM341.217 176V165.12H350.257V176L341.217 176Z" fill="white"/>
</svg>
